HIERARCHY
ROOT ZeroOut_JNT
{
  OFFSET 0 0 0
  CHANNELS 6 Xposition Yposition Zposition Zrotation Xrotation Yrotation
  JOINT SpineFinal_1_JNT
  {
    OFFSET 1.09941 64.002 -42.9966
    CHANNELS 6 Xposition Yposition Zposition Zrotation Xrotation Yrotation
    JOINT l_legIKClavicle_Root_JNT
    {
      OFFSET -2.64853 -0.810668 10.7015
      CHANNELS 6 Xposition Yposition Zposition Zrotation Xrotation Yrotation
      JOINT l_legBlendRoot_JNT
      {
        OFFSET 16.1374 0 0
        CHANNELS 6 Xposition Yposition Zposition Zrotation Xrotation Yrotation
        JOINT l_legBlendMiddle_JNT
        {
          OFFSET 27.0969 0 0
          CHANNELS 6 Xposition Yposition Zposition Zrotation Xrotation Yrotation
          JOINT l_legBlendEnd_JNT
          {
            OFFSET 24.8414 0 0
            CHANNELS 6 Xposition Yposition Zposition Zrotation Xrotation Yrotation
            JOINT l_legBlendTip_JNT
            {
              OFFSET 6.77858 0 0
              CHANNELS 6 Xposition Yposition Zposition Zrotation Xrotation Yrotation
              End Site
              {
                OFFSET 0 0 0
              }
            }
          }
        }
      }
    }
    JOINT SpineFinal_2_JNT
    {
      OFFSET -19.9136 -1.49144 0.993757
      CHANNELS 6 Xposition Yposition Zposition Zrotation Xrotation Yrotation
      JOINT SpineFinal_3_JNT
      {
        OFFSET -19.2001 3.24201 2.0363
        CHANNELS 6 Xposition Yposition Zposition Zrotation Xrotation Yrotation
        JOINT SpineFinal_4_JNT
        {
          OFFSET -19.1272 6.18264 0.824529
          CHANNELS 6 Xposition Yposition Zposition Zrotation Xrotation Yrotation
          JOINT SpineFinal_5_JNT
          {
            OFFSET -18.1852 7.21578 -1.20318
            CHANNELS 6 Xposition Yposition Zposition Zrotation Xrotation Yrotation
            JOINT SpineFinal_6_JNT
            {
              OFFSET -19.144 8.35871 0
              CHANNELS 6 Xposition Yposition Zposition Zrotation Xrotation Yrotation
              JOINT SpineFinal_7_JNT
              {
                OFFSET -16.3943 7.24542 0
                CHANNELS 6 Xposition Yposition Zposition Zrotation Xrotation Yrotation
                JOINT SpineFinal_8_JNT
                {
                  OFFSET -19.3877 2.40349 0
                  CHANNELS 6 Xposition Yposition Zposition Zrotation Xrotation Yrotation
                  JOINT head_JNT
                  {
                    OFFSET -13.796 -11.6756 0
                    CHANNELS 6 Xposition Yposition Zposition Zrotation Xrotation Yrotation
                    JOINT l_hornRoot_JNT
                    {
                      OFFSET -15.825 14.8229 15.3879
                      CHANNELS 6 Xposition Yposition Zposition Zrotation Xrotation Yrotation
                      JOINT l_hornMid_JNT
                      {
                        OFFSET 6.55118 0 0
                        CHANNELS 6 Xposition Yposition Zposition Zrotation Xrotation Yrotation
                        JOINT l_hornEnd_JNT
                        {
                          OFFSET 6.73503 0 0
                          CHANNELS 6 Xposition Yposition Zposition Zrotation Xrotation Yrotation
                          End Site
                          {
                            OFFSET 0 0 0
                          }
                        }
                      }
                    }
                    JOINT headJend_JNT
                    {
                      OFFSET 1.34858 -27.5886 0
                      CHANNELS 6 Xposition Yposition Zposition Zrotation Xrotation Yrotation
                      End Site
                      {
                        OFFSET -0.885571 -8.63314 -0.143146
                      }
                    }
                    JOINT r_hornRoot_JNT
                    {
                      OFFSET -15.825 14.8229 -15.3879
                      CHANNELS 6 Xposition Yposition Zposition Zrotation Xrotation Yrotation
                      JOINT r_hornMid_JNT
                      {
                        OFFSET -2.40814 5.46468 -2.69372
                        CHANNELS 6 Xposition Yposition Zposition Zrotation Xrotation Yrotation
                        JOINT r_hornEnd_JNT
                        {
                          OFFSET -2.40922 6.0083 -1.85921
                          CHANNELS 6 Xposition Yposition Zposition Zrotation Xrotation Yrotation
                          End Site
                          {
                            OFFSET 0 0 0
                          }
                        }
                      }
                    }
                    JOINT m_upLip_JNT
                    {
                      OFFSET 4.72477 -9.87974 0
                      CHANNELS 6 Xposition Yposition Zposition Zrotation Xrotation Yrotation
                      JOINT l_lipUpRoot_JNT
                      {
                        OFFSET 2.68891 -0.690234 4.02874
                        CHANNELS 6 Xposition Yposition Zposition Zrotation Xrotation Yrotation
                        JOINT l_lipUpEnd_JNT
                        {
                          OFFSET 0 0 -14.9226
                          CHANNELS 6 Xposition Yposition Zposition Zrotation Xrotation Yrotation
                          End Site
                          {
                            OFFSET 0 0 0
                          }
                        }
                      }
                      JOINT m_upLipRoot_JNT
                      {
                        OFFSET 0 0 3.94939
                        CHANNELS 6 Xposition Yposition Zposition Zrotation Xrotation Yrotation
                        JOINT m_upLipEnd_JNT
                        {
                          OFFSET 0 0 15.0019
                          CHANNELS 6 Xposition Yposition Zposition Zrotation Xrotation Yrotation
                          End Site
                          {
                            OFFSET 0 0 0
                          }
                        }
                      }
                      JOINT r_lipUpRoot_JNT
                      {
                        OFFSET -2.689 -0.690236 4.02875
                        CHANNELS 6 Xposition Yposition Zposition Zrotation Xrotation Yrotation
                        JOINT r_lipUpEnd_JNT
                        {
                          OFFSET 9.35075e-005 -0.000392738 14.9226
                          CHANNELS 6 Xposition Yposition Zposition Zrotation Xrotation Yrotation
                          End Site
                          {
                            OFFSET 0 0 0
                          }
                        }
                      }
                    }
                    JOINT m_DnLip_JNT
                    {
                      OFFSET 6.0207 -9.81639 0
                      CHANNELS 6 Xposition Yposition Zposition Zrotation Xrotation Yrotation
                      JOINT l_lipDn_JNT
                      {
                        OFFSET 2.71301 -0.162748 3.99146
                        CHANNELS 6 Xposition Yposition Zposition Zrotation Xrotation Yrotation
                        JOINT l_lipEnd_JNT
                        {
                          OFFSET 0 0 -14.9599
                          CHANNELS 6 Xposition Yposition Zposition Zrotation Xrotation Yrotation
                          End Site
                          {
                            OFFSET 0 0 0
                          }
                        }
                      }
                      JOINT m_dnLip_JNT
                      {
                        OFFSET 0 -0.0431035 3.99141
                        CHANNELS 6 Xposition Yposition Zposition Zrotation Xrotation Yrotation
                        JOINT m_dnLipEnd_JNT
                        {
                          OFFSET 0 0 14.9599
                          CHANNELS 6 Xposition Yposition Zposition Zrotation Xrotation Yrotation
                          End Site
                          {
                            OFFSET 0 0 0
                          }
                        }
                      }
                      JOINT r_lipDn_JNT
                      {
                        OFFSET -2.71301 -0.162761 3.99141
                        CHANNELS 6 Xposition Yposition Zposition Zrotation Xrotation Yrotation
                        JOINT r_lipDnEnd_JNT
                        {
                          OFFSET 0 0 14.9599
                          CHANNELS 6 Xposition Yposition Zposition Zrotation Xrotation Yrotation
                          End Site
                          {
                            OFFSET 0 0 0
                          }
                        }
                      }
                    }
                    JOINT l_lid_JNT
                    {
                      OFFSET -7.85698 -6.72885 9.63956
                      CHANNELS 6 Xposition Yposition Zposition Zrotation Xrotation Yrotation
                      End Site
                      {
                        OFFSET 0 0 0
                      }
                    }
                    JOINT r_lid_JNT
                    {
                      OFFSET -7.85684 -6.72882 -9.63956
                      CHANNELS 6 Xposition Yposition Zposition Zrotation Xrotation Yrotation
                      End Site
                      {
                        OFFSET 0 0 0
                      }
                    }
                  }
                }
              }
            }
            JOINT l_FwClavicleRoot_JNT
            {
              OFFSET -3.21476 -4.3187 6.08742
              CHANNELS 6 Xposition Yposition Zposition Zrotation Xrotation Yrotation
              JOINT l_FwLegBlendRoot_JNT
              {
                OFFSET 21.051 0 0
                CHANNELS 6 Xposition Yposition Zposition Zrotation Xrotation Yrotation
                JOINT l_FwLegBlendMiddle_JNT
                {
                  OFFSET 33.1145 0 0
                  CHANNELS 6 Xposition Yposition Zposition Zrotation Xrotation Yrotation
                  JOINT l_FwLegBlendTip_JNT
                  {
                    OFFSET 29.9221 0 0
                    CHANNELS 6 Xposition Yposition Zposition Zrotation Xrotation Yrotation
                    JOINT l_FwLegBlendEnd_JNT
                    {
                      OFFSET 9.62649 0 0
                      CHANNELS 6 Xposition Yposition Zposition Zrotation Xrotation Yrotation
                      End Site
                      {
                        OFFSET 0 0 0
                      }
                    }
                  }
                }
              }
            }
            JOINT r_FwClavicleRoot_JNT
            {
              OFFSET 1.57499 -4.64749 -6.47788
              CHANNELS 6 Xposition Yposition Zposition Zrotation Xrotation Yrotation
              JOINT r_FwLegBlendRoot_JNT
              {
                OFFSET 1.1653 -12.7157 -16.7361
                CHANNELS 6 Xposition Yposition Zposition Zrotation Xrotation Yrotation
                JOINT r_FwLegBlendMiddle_JNT
                {
                  OFFSET 16.2308 -5.97551 28.2387
                  CHANNELS 6 Xposition Yposition Zposition Zrotation Xrotation Yrotation
                  JOINT r_FwLegBlendTip_JNT
                  {
                    OFFSET 26.7017 -9.19239 -9.89204
                    CHANNELS 6 Xposition Yposition Zposition Zrotation Xrotation Yrotation
                    JOINT r_FwLegBlendEnd_JNT
                    {
                      OFFSET 4.44874 -7.74942 3.58114
                      CHANNELS 6 Xposition Yposition Zposition Zrotation Xrotation Yrotation
                      End Site
                      {
                        OFFSET 0 0 0
                      }
                    }
                  }
                }
              }
            }
          }
        }
      }
    }
    JOINT r_legIKClavicle_Root_JNT
    {
      OFFSET -4.94604 1.23737 -11.8565
      CHANNELS 6 Xposition Yposition Zposition Zrotation Xrotation Yrotation
      JOINT r_legBlendRoot_JNT
      {
        OFFSET 13.2848 -5.74129 -7.13912
        CHANNELS 6 Xposition Yposition Zposition Zrotation Xrotation Yrotation
        JOINT r_legBlendMiddle_JNT
        {
          OFFSET 14.815 16.9375 15.0957
          CHANNELS 6 Xposition Yposition Zposition Zrotation Xrotation Yrotation
          JOINT r_legBlendEnd_JNT
          {
            OFFSET 23.6904 -6.58016 -3.54465
            CHANNELS 6 Xposition Yposition Zposition Zrotation Xrotation Yrotation
            JOINT r_legBlendTip_JNT
            {
              OFFSET 1.47758 -6.16068 -2.41079
              CHANNELS 6 Xposition Yposition Zposition Zrotation Xrotation Yrotation
              End Site
              {
                OFFSET 0 0 0
              }
            }
          }
        }
      }
    }
    JOINT tailRoot_JNT
    {
      OFFSET 2.82533 14.5514 0
      CHANNELS 6 Xposition Yposition Zposition Zrotation Xrotation Yrotation
      JOINT tailMid_JNT
      {
        OFFSET 7.87756 0 0
        CHANNELS 6 Xposition Yposition Zposition Zrotation Xrotation Yrotation
        JOINT tailEnd_JNT
        {
          OFFSET 6.52588 0 0
          CHANNELS 6 Xposition Yposition Zposition Zrotation Xrotation Yrotation
          End Site
          {
            OFFSET 0 0 0
          }
        }
      }
    }
    JOINT l_shoulderBkRoot_JNT
    {
      OFFSET -9.30511 7.998 11.2048
      CHANNELS 6 Xposition Yposition Zposition Zrotation Xrotation Yrotation
      JOINT l_shoulderBkMid_JNT
      {
        OFFSET 0 2.004 0
        CHANNELS 6 Xposition Yposition Zposition Zrotation Xrotation Yrotation
        End Site
        {
          OFFSET 0 0 0
        }
      }
    }
    JOINT r_shoulderBkRoot_JNT
    {
      OFFSET -9.30514 7.99801 -11.2048
      CHANNELS 6 Xposition Yposition Zposition Zrotation Xrotation Yrotation
      JOINT r_shoulderBkMid_JNT
      {
        OFFSET 0 -3.9713 0
        CHANNELS 6 Xposition Yposition Zposition Zrotation Xrotation Yrotation
        End Site
        {
          OFFSET 0 0 0
        }
      }
    }
  }
}
MOTION
Frames:	3
Frame Time:	0.0416667
0 0 0 0 0 -0 9.9718e-017 64.0226 -43 6.15838e-005 6.85073 90 -0.323145 -1.55994 9.59625 -26.4062 61.2999 -67.9538 16.1374 -6.32415e-007 1.68252e-006 -26.9058 10.3846 45.4791 27.0969 0 1.42109e-014 4.98513e-015 2.22777e-015 -53.9439 24.8414 7.10543e-015 2.84217e-014 2.05503e-005 1.69689e-005 -50.0311 6.77858 -7.10543e-015 -1.42109e-014 -7.58303e-022 -4.17067e-021 -0 -19.5397 -7.10543e-015 -3.20834e-015 -1.59028e-015 -5.68727e-022 -4.54982e-021 -19.4076 1.98539 -3.88579e-015 -5.84373 1.67103e-005 1.45508e-006 -18.5401 5.80111 5.88419e-015 -17.3749 -1.13302e-007 3.90642e-008 -18.018 7.25644 -4.85917e-015 -21.9334 1.50017e-007 2.33783e-008 -19.144 8.35871 -2.88325e-014 -23.5896 4.66357e-019 -1.12214e-014 -16.3943 7.24542 1.55613e-014 -23.8437 6.36129e-015 -1.26868e-014 -19.3877 2.40349 -4.69349e-014 -7.06743 9.54178e-015 -1.2707e-014 -13.796 -11.6756 2.31438e-014 3.97569e-016 1.51661e-021 -4.54982e-021 -15.825 14.8229 15.3879 112.717 -2.35881 -24.301 6.55118 1.7053e-013 3.55271e-015 -7.71367e-009 -7.59931 2.05853 6.73503 2.84217e-014 -4.9738e-014 -1.59028e-015 3.97569e-015 3.18055e-015 1.34858 -27.5886 -1.33918e-014 92.7985 1.31729e-014 -1.65353e-014 -15.825 14.8229 -15.3879 4.77083e-015 -2.22639e-014 -2.70347e-014 -2.40814 5.46468 -2.69372 -36.0976 -3.24524 -12.7174 -2.40922 6.0083 -1.85921 3.18055e-015 -1.59028e-015 3.18055e-015 4.72477 -9.87974 5.5557e-015 92.7985 3.50417e-015 -90 2.68891 -0.690234 4.02874 -180 7.01671e-015 180 0 0 -14.9226 -3.63175e-021 0 -0 1.3003e-015 0 3.94939 4.53279e-021 7.76503e-019 1.51661e-021 -6.77626e-021 0 15.0019 4.5327e-021 0 -0 -2.689 -0.690236 4.02875 4.53279e-021 7.76503e-019 1.51661e-021 9.35075e-005 -0.000392738 14.9226 4.5327e-021 0 -0 6.0207 -9.81639 6.35084e-015 92.8022 3.50416e-015 -90 2.71301 -0.162748 3.99146 180 7.01671e-015 179.996 0 2.84217e-014 -14.9599 -1.19318e-020 0 -0 1.33098e-015 -0.0431035 3.99141 1.22028e-021 0 -0 6.77626e-021 0 14.9599 1.22028e-021 0 -0 -2.71301 -0.162761 3.99141 1.22028e-021 0 -0 0 -2.84217e-014 14.9599 1.22028e-021 0 -0 -7.85698 -6.72885 9.63956 34.106 19.9417 85.9622 -7.85684 -6.72882 -9.63956 -145.894 19.9417 85.9622 0.43207 -4.54112 6.72563 48.764 26.2605 -112.654 21.051 4.13067e-010 2.27599e-009 71.404 -61.7666 136.9 33.1145 8.3753e-007 -2.8019e-007 140.928 7.01671e-015 180 29.9221 -2.13163e-014 0 41.2158 2.40043e-015 4.23833e-015 9.62649 2.4869e-014 7.10543e-015 29.859 -1.7467e-015 90 0.43207 -4.54112 -6.72563 -26.6478 9.37257 -17.9831 1.1653 -12.7157 -16.7361 71.2739 -61.7378 136.843 16.2308 -5.97551 28.2387 140.792 -0.045761 -179.867 26.7017 -9.19239 -9.89204 41.1443 -0.0652536 -0.0374711 4.44874 -7.74942 3.58114 29.859 -1.7467e-015 90 -0.323145 -1.55994 -9.59625 -62.7106 -9.24999 4.74057 13.2848 -5.74129 -7.13912 -26.9654 10.3846 45.5487 14.815 16.9375 15.0957 0.0724422 -0.073815 -54.0475 23.6904 -6.58016 -3.54465 -0.0444257 -0.00663606 -49.9861 1.47758 -6.16068 -2.41079 -7.95139e-016 7.95139e-016 -6.60959e-015 2.82533 14.5514 2.3584e-015 4.98639 4.86072e-019 -5.22158e-015 7.87756 -1.42109e-014 -4.64625e-015 19.1183 -1.67263e-015 7.66851e-016 6.52588 0 1.74299e-015 -3.18055e-015 1.97159e-020 -0 -9.30511 7.998 11.2048 -6.8505 -4.18474e-016 -90 0 0 0 -7.55292e-021 4.85314e-020 1.51661e-021 -9.30514 7.99801 -11.2048 173.149 4.18474e-016 -90 0 0 0 -3.70096e-021 9.70628e-020 4.54982e-021 
0 0 0 0 0 -0 9.9718e-017 64.0226 -43 0.000284483 6.85246 90 -0.323145 -1.55994 9.59625 -26.4062 61.2999 -67.9538 16.1374 -6.32415e-007 1.68252e-006 -26.9061 10.3845 45.4799 27.0969 3.55271e-015 0 4.9851e-015 2.22777e-015 -53.9483 24.8414 7.10543e-015 2.84217e-014 7.41298e-005 6.12358e-005 -50.0282 6.77858 -7.10543e-015 -1.42109e-014 1.13745e-021 -1.13745e-021 -6.36111e-015 -19.5397 0 -3.20837e-015 7.70769e-042 7.27971e-020 -6.06643e-021 -19.4076 1.98539 -3.88573e-015 -5.86047 8.39349e-005 6.53054e-008 -18.5401 5.80111 5.88415e-015 -17.3776 -8.64108e-007 2.89027e-007 -18.018 7.25644 -4.85915e-015 -21.9196 1.11334e-006 2.60281e-007 -19.144 8.35871 -2.88324e-014 -23.5979 2.09292e-018 -1.12215e-014 -16.3943 7.24542 1.55614e-014 -23.848 6.36224e-015 -1.26864e-014 -19.3877 2.40349 -4.69349e-014 -7.07177 9.54274e-015 -1.27063e-014 -13.796 -11.6756 2.31438e-014 0 0 -2.35074e-020 -15.825 14.8229 15.3879 112.717 -2.35881 -24.301 6.55118 2.27374e-013 5.32907e-015 -7.71367e-009 -7.59931 2.05853 6.73503 0 -4.9738e-014 4.77083e-015 2.38542e-015 -0 1.34858 -27.5886 -1.33918e-014 92.7985 1.31728e-014 -1.65353e-014 -15.825 14.8229 -15.3879 3.97569e-015 -2.22639e-014 -2.70347e-014 -2.40814 5.46468 -2.69372 -36.0976 -3.24524 -12.7174 -2.40922 6.0083 -1.85921 3.18055e-015 -1.59028e-015 -0 4.72477 -9.87974 5.5557e-015 92.7985 3.50417e-015 -90 2.71443 -0.690234 3.99988 180 7.01671e-015 180 0 0 -14.9226 1.32288e-020 3.10601e-018 -6.06643e-021 1.30028e-015 0 3.94939 -8.96338e-021 3.10601e-018 6.06643e-021 8.13152e-020 -2.84217e-014 15.0019 -8.96042e-021 3.10601e-018 6.06643e-021 -2.70556 -0.687932 4.00012 -8.96338e-021 3.10601e-018 6.06643e-021 9.35075e-005 -0.000392738 14.9226 -8.96042e-021 3.10601e-018 6.06643e-021 6.0207 -9.81639 6.35077e-015 93.0239 3.50347e-015 -90 2.72054 -0.169103 3.97162 -180 7.01666e-015 179.775 0 2.84217e-014 -14.9599 -9.70628e-020 -2.48481e-017 -0 4.50703e-016 -0.0431035 3.99141 -2.40998e-020 -2.48481e-017 6.06643e-021 0 0 14.9599 -2.40998e-020 0 1.21329e-020 -2.70598 -0.154654 3.97461 -3.45716e-022 -2.48481e-017 -0.224609 -4.44089e-016 0 14.9599 -2.91188e-019 -4.96962e-017 -0 -7.85698 -6.72885 9.63956 34.106 19.9417 85.9622 -7.85684 -6.72882 -9.63956 -145.894 19.9417 85.9622 0.43207 -4.54112 6.72563 48.7513 26.2605 -112.654 21.051 4.13095e-010 2.27599e-009 71.4157 -61.7723 136.91 33.1145 8.3753e-007 -2.8019e-007 141.001 7.01671e-015 180 29.9221 -2.84217e-014 0 41.2617 2.40391e-015 4.2366e-015 9.62649 2.13163e-014 7.10543e-015 29.859 -1.7467e-015 90 0.43207 -4.54112 -6.72563 -26.6572 9.37259 -17.9832 1.1653 -12.7157 -16.7361 71.2695 -61.74 136.848 16.2308 -5.97551 28.2387 140.795 -0.0679317 -179.805 26.7017 -9.19239 -9.89204 41.1423 -0.101099 -0.0578379 4.44874 -7.74942 3.58114 29.859 -1.7467e-015 90 -0.323145 -1.55994 -9.59625 -62.7106 -9.24999 4.74057 13.2848 -5.74129 -7.13912 -26.9646 10.3847 45.5488 14.815 16.9375 15.0957 0.0684503 -0.0697475 -54.0475 23.6904 -6.58016 -3.54465 -0.0413424 -0.00614653 -49.9861 1.47758 -6.16068 -2.41079 7.95139e-016 7.95139e-016 1.04362e-015 2.82533 14.5514 2.35836e-015 4.96843 2.13842e-018 -5.22169e-015 7.87756 -1.42109e-014 -4.64619e-015 19.1066 -1.67276e-015 7.66432e-016 6.52588 -1.42109e-014 1.74302e-015 -3.18055e-015 -1.51661e-020 4.2465e-020 -9.30511 7.998 11.2048 -6.8505 -4.18474e-016 -90 0 0 0 1.24571e-019 -1.16475e-018 -6.06643e-021 -9.30514 7.99801 -11.2048 173.149 4.18474e-016 -90 0 0 0 3.92666e-021 -3.88251e-019 6.06643e-021 
0 0 0 0 0 -0 -2.78215e-016 64.0381 -43.0008 -0.0189447 6.77771 90.0025 -0.323145 -1.55994 9.59625 -26.4062 61.2999 -67.9538 16.1374 -6.33808e-007 1.68296e-006 -26.881 10.3905 45.5328 27.0969 2.84217e-014 -2.84217e-014 4.98559e-015 2.22779e-015 -53.8738 24.8414 7.10543e-015 2.84217e-014 -0.00511365 -0.00421454 -50.0862 6.77858 -7.10543e-015 -1.42109e-014 -1.05236e-038 -1.89576e-022 -3.18055e-015 -19.5403 -0.023347 -6.97632e-005 0.0927836 -0.0143026 -0.000305398 -19.4003 1.89128 -0.00011201 -5.0276 -0.00449125 -0.000288065 -18.411 5.6601 -6.36962e-007 -17.285 3.46478e-005 -1.18193e-005 -17.9179 7.33517 -2.68408e-006 -22.7318 -4.54375e-005 -8.3151e-006 -19.144 8.35871 -2.07815e-014 -22.9625 -1.22347e-016 -1.12208e-014 -16.3943 7.24542 2.60762e-014 -23.6129 6.31012e-015 -1.27124e-014 -19.3877 2.40349 -3.46626e-014 -6.89805 9.50417e-015 -1.27351e-014 -13.796 -11.6756 2.83201e-014 0.75249 1.18485e-023 -4.4617e-023 -15.825 14.8229 15.3879 112.717 -2.35881 -24.301 6.55118 1.42109e-013 1.77636e-014 -7.71366e-009 -7.59931 2.05853 6.73503 2.84217e-014 -4.9738e-014 -0 0 3.18055e-015 1.34858 -27.5886 -1.33918e-014 92.7985 1.31729e-014 -1.65353e-014 -15.825 14.8229 -15.3879 -9.14409e-015 7.95139e-015 1.27222e-014 -2.40814 5.46468 -2.69372 -36.0976 -3.24524 -12.7174 -2.40922 6.0083 -1.85921 -6.36111e-015 -3.18055e-015 7.95139e-016 4.72477 -9.87974 -3.65637e-016 92.7985 3.50417e-015 -90 2.78655 -0.690234 3.91831 180 7.01671e-015 180 0 0 -14.9226 1.92538e-023 -1.19271e-015 -2.3697e-023 -6.35275e-022 2.84217e-014 3.94939 -7.03504e-024 -1.19271e-015 2.3697e-023 -1.05879e-022 0 15.0019 -7.77557e-024 -1.19271e-015 2.3697e-023 -2.75236 -0.681421 3.91921 -7.03504e-024 -1.19271e-015 2.3697e-023 9.35075e-005 -0.000392738 14.9226 -7.77557e-024 -1.19271e-015 2.3697e-023 6.0207 -9.81639 -3.65636e-016 93.6579 3.50121e-015 -90 2.74181 -0.187061 3.91555 -180 7.01592e-015 179.141 -4.44089e-016 0 -14.9599 1.86361e-017 -3.97569e-016 -0 -9.09135e-016 -0.0431035 3.99141 -9.6269e-024 -7.95139e-016 1.18485e-023 0 0 14.9599 -1.03674e-023 -7.95139e-016 -0 -2.68612 -0.131742 3.92714 -5.7144e-018 -7.95139e-016 -0.859375 0 0 14.9599 0 0 -0 -7.85698 -6.72885 9.63956 34.106 19.9417 85.9622 -7.85684 -6.72882 -9.63956 -145.894 19.9417 85.9622 0.497948 -4.51444 6.72563 48.972 26.2605 -112.654 21.051 -1.12811e-008 -6.53042e-008 69.2948 -60.7868 135.051 33.1145 8.3753e-007 -2.8019e-007 136.989 7.01671e-015 180 29.9221 4.26326e-014 3.55271e-015 39.0204 2.2363e-015 4.32716e-015 9.62649 2.4869e-014 1.06581e-014 29.859 -1.7467e-015 90 0.684289 -4.44454 -6.72563 -25.6103 9.37258 -17.9831 1.1653 -12.7157 -16.7361 71.5863 -61.5804 136.531 16.2308 -5.97551 28.2387 140.848 1.49122 175.663 26.7017 -9.19239 -9.89204 41.1135 2.4812 1.42543 4.44874 -7.74942 3.58114 29.859 -1.7467e-015 90 -0.323145 -1.55994 -9.59625 -62.7106 -9.24999 4.74057 13.2848 -5.74129 -7.13912 -26.9345 10.3876 45.5181 14.815 16.9375 15.0957 0.158433 -0.161435 -54.0473 23.6904 -6.58016 -3.54465 -0.122954 -0.021147 -49.98 1.47758 -6.16068 -2.41079 3.97569e-016 1.59028e-015 -8.44835e-016 2.82533 14.5514 -3.53884e-016 6.34308 -1.19873e-016 -5.2212e-015 7.87756 -2.84217e-014 -5.04805e-015 19.9996 -1.66599e-015 7.89315e-016 6.52588 2.84217e-014 1.06859e-015 0.149571 7.76503e-019 3.88251e-019 -9.30511 7.998 11.2048 -6.8505 -4.18474e-016 -90 0 0 0 -3.55455e-018 0 -7.76503e-019 -9.30514 7.99801 -11.2048 173.149 4.18474e-016 -90 0 0 0 -3.00743e-018 -2.48481e-017 -0 
